<svg version="1" xmlns="http://www.w3.org/2000/svg" width="933.333" height="933.333" viewBox="0 0 700.000000 700.000000"><path d="M314.5 1c-17.1 2.5-20.4 3.5-23.8 6.8-2 2-3 4.1-3.1 6.7l-.3 3.8-8.7 3.2c-6.8 2.6-8.8 3-9.2 2-.9-2.2-5.3-4.6-8.7-4.9-4.4-.4-8.5 1.5-19.8 8.9-16.1 10.5-30.7 23.9-40.5 37-2.5 3.3-5.1 6.7-5.7 7.5-2.2 2.7-10.1 16.3-13.4 23-7.7 16-14.7 38.6-16.8 55-1.6 12.5-2.2 18.6-3 33-.3 5.7-.7 10.5-.8 10.6-.1.1-3.6.4-7.7.7-9 .6-10.5.9-15.9 3.7-17 8.6-24.7 34.9-17.5 59.7 4.3 15 12.9 30.3 28 50 4.3 5.5 7.2 10.3 7 11.2-.3.9-.8 6.8-1.1 13.1-.4 6.3-.8 13.1-1 15-.2 1.9-.6 7.3-.9 12-.4 4.7-.9 10.5-1.1 13-.3 2.5-.7 7-1 10-.7 7.9-1.6 16.1-2 19-.2 1.4-.7 5-1 8-.3 3-.8 6.6-1 8-.2 1.4-.6 4.3-.9 6.5-5.2 36.6-12.4 69-21.3 95.5-9.3 28-18.7 46.2-36.3 70.5-2.6 3.5-6.6 11.2-9 17-1.4 3.2-2.2 6.3-3.5 13.8-2.5 13.3 1.2 33 8.3 44.1 3.9 6.3 12.3 13.9 18.5 17 9.7 4.7 15.7 6 27.2 5.9 13.7-.1 24.7-4.4 48.5-18.9 20.7-12.5 30.9-16.1 42.4-15.1 12.8 1.2 16.6 3.4 32.8 19.3 21 20.5 34.9 26.5 61.8 26.8 16.3.1 21.2-.5 31-3.7 16.4-5.5 27.4-14 42-32.7 6.3-8.3 14-15.1 19.6-17.6 12.6-5.6 17.1-2.4 32 22.6 8.6 14.5 18.1 21.5 30.5 22.4 9.7.7 12.9-3.3 16.5-20.3.3-1.2 1.2-5.3 2-9 .9-3.6 1.7-7.3 1.9-8.1.2-.8.8-3.5 1.4-6 .7-2.5 1.4-5.5 1.7-6.8.2-1.2 1.4-6.2 2.5-11 1.2-4.8 2.2-9.4 2.4-10.2.2-.8 2.6-10.5 5.4-21.5 5.9-23.7 9.2-38.1 9.6-41.5.3-3.6-2.9-9.4-6-10.8-2.5-1.1-2.7-1.6-2.2-5.5.3-2.3.8-4.9 1-5.7.3-.8.8-2.7 1.1-4.1.5-2.2 1.3-2.8 4.6-3.3 6.8-1.1 8.5-4 11.4-19.5 2.3-12.3 5.7-33.2 7-42.1 1.5-11.1 1.9-13.7 2.2-15.2.1-.9.6-4.8.9-8.5.4-3.7.9-7 1-7.3.2-.3.6-4.1 1-8.5s.9-8.8 1.1-9.9c.2-1 .6-5.1.9-9 .4-3.9.8-8.7 1-10.6.2-1.9.7-8 1-13.5.4-5.5.8-11 1-12.3.2-1.3 4.9-6.9 10.4-12.5 16.9-17.3 28.4-29.7 39.1-42.2 14.4-16.9 28.2-39.1 33.1-53.3 9.5-27.6 1.6-55.8-18.1-65.1-4.7-2.2-6.9-2.6-15-2.6-13.9.1-26.6 4.8-45.6 17-9 5.8-8.9 5.9-9.9-1.1-.2-1.6-.6-4.5-.9-6.4-2.9-19.5-12.2-52.2-21.3-74.5C482.9 59.6 431.8 15.3 365.1 2.8 353.8.7 324-.4 314.5 1zm281.2 218.6c3.6 2.3 5.6 7.2 6.8 16.6.8 6.3-3.2 21.6-7.6 29.2-.6 1.1-2.3 4-3.6 6.5-2.6 4.7-12.2 18.6-15.2 21.8-.9 1-2.7 3.1-4 4.8-1.2 1.6-4.8 5.9-7.9 9.4-3.2 3.5-6.5 7.3-7.5 8.5-2.3 2.7-14.9 15.6-15.1 15.6-.1 0-.3-9.9-.3-22.1-.2-25.3-1-43.8-2.8-61.4-.5-4.7-.2-5 16-15.7 20.2-13.4 34.1-17.9 41.2-13.2z"/></svg>