<svg xmlns="http://www.w3.org/2000/svg" viewBox="0 0 118.59 122.21"><defs><style>.cls-1{fill:#f7afa3;opacity:0.15;}.cls-2{fill:#fff;}.cls-3{fill:#f5a8a0;}.cls-4{fill:#3e6177;}.cls-5{fill:#d5dfeb;}</style></defs><g id="Layer_2" data-name="Layer 2"><g id="Layer_1-2" data-name="Layer 1"><rect class="cls-1" x="-14.21" y="37.91" width="147" height="50" rx="25" ry="25" transform="translate(-27.12 60.35) rotate(-45)"/><path class="cls-2" d="M75.6,13.42v89.15a4.79,4.79,0,0,1-4.79,4.79H34.38a4.79,4.79,0,0,1-4.79-4.79V13.42a4.79,4.79,0,0,1,4.79-4.79h8.19a10.07,10.07,0,0,0,20.05,0h8.19A4.79,4.79,0,0,1,75.6,13.42Z"/><rect class="cls-3" x="35.57" y="50.8" width="35.47" height="50.8" rx="5.39" ry="5.39"/><path class="cls-4" d="M86.14,35.53a6.29,6.29,0,1,1,6.29-6.29A6.3,6.3,0,0,1,86.14,35.53Zm0-9.59a3.29,3.29,0,1,0,3.29,3.29A3.3,3.3,0,0,0,86.14,25.94Z"/><path class="cls-3" d="M18.09,66.2a6.29,6.29,0,1,1,6.29-6.29A6.3,6.3,0,0,1,18.09,66.2Zm0-9.59a3.29,3.29,0,1,0,3.29,3.29A3.3,3.3,0,0,0,18.09,56.62Z"/><circle class="cls-3" cx="20.72" cy="25.64" r="2.64"/><circle class="cls-3" cx="83.99" cy="55.36" r="2.64"/><circle class="cls-5" cx="23.6" cy="2.64" r="2.64"/><circle class="cls-5" cx="19.76" cy="109.03" r="2.64"/><path class="cls-4" d="M70.81,108.86H34.38a6.3,6.3,0,0,1-6.29-6.29V13.42a6.3,6.3,0,0,1,6.29-6.29h9.55l.13,1.36a8.57,8.57,0,0,0,17.07,0l.13-1.36h9.55a6.3,6.3,0,0,1,6.29,6.29v89.15A6.3,6.3,0,0,1,70.81,108.86ZM34.38,10.13a3.3,3.3,0,0,0-3.29,3.29v89.15a3.3,3.3,0,0,0,3.29,3.29H70.81a3.3,3.3,0,0,0,3.29-3.29V13.42a3.3,3.3,0,0,0-3.29-3.29h-6.9a11.58,11.58,0,0,1-22.62,0Z"/><circle class="cls-2" cx="78.12" cy="89.98" r="27.68"/><circle class="cls-5" cx="79.08" cy="89.98" r="22.46"/><path class="cls-4" d="M78.12,113.94a24,24,0,1,1,24-24A24,24,0,0,1,78.12,113.94Zm0-44.91a21,21,0,1,0,21,21A21,21,0,0,0,78.12,69Z"/><rect class="cls-4" x="31.03" y="27.76" width="2" height="2"/><path class="cls-4" d="M67.81,29.76H63.47v-2h4.35Zm-8.7,0H54.77v-2h4.35Zm-8.7,0H46.07v-2h4.35Zm-8.7,0H37.38v-2h4.35Z"/><rect class="cls-4" x="72.16" y="27.76" width="2" height="2"/><rect class="cls-2" x="40.57" y="57.51" width="2" height="13.42"/><rect class="cls-2" x="40.57" y="72.85" width="2" height="5.75"/><rect class="cls-2" x="40.57" y="80.52" width="2" height="1.92"/><path class="cls-2" d="M76.7,99a1.92,1.92,0,0,1-1.11-.35l-7.66-5.36a1.5,1.5,0,0,1,1.72-2.46l6.81,4.77L87.59,80.8A1.5,1.5,0,1,1,90,82.6L78.24,98.27A1.92,1.92,0,0,1,76.7,99Z"/></g></g></svg>